<mxfile host="app.diagrams.net" modified="2023-06-19T13:19:02.738Z" agent="Mozilla/5.0 (Macintosh; Intel Mac OS X 10_15_7) AppleWebKit/537.36 (KHTML, like Gecko) Chrome/114.0.0.0 Safari/537.36" version="21.3.2" etag="AG5YE3agMjnwdxLA8o9I" type="github">
  <diagram name="第 1 页" id="ISmllg0VNWneyEOrHAiS">
    <mxGraphModel>
      <root>
        <mxCell id="0" />
        <mxCell id="1" parent="0" />
      </root>
    </mxGraphModel>
  </diagram>
</mxfile>
